<svg width="145" height="73" viewBox="0 0 145 73" fill="none" xmlns="http://www.w3.org/2000/svg">
<g clip-path="url(#clip0_17_22)">
<rect width="145" height="73" fill="white"/>
<path d="M145 0.473999H0V73.474H145V0.473999Z" fill="white"/>
<path d="M53.3465 3.87177C53.3465 4.21283 53.3039 4.51126 53.2187 4.76705C53.1335 5.02284 53.0176 5.24305 52.8709 5.42779C52.7242 5.61253 52.5538 5.7618 52.3598 5.87549C52.1657 5.98918 51.9645 6.07443 51.7563 6.13128V6.1597C52.0119 6.20711 52.2509 6.29703 52.4733 6.4297C52.6958 6.56238 52.8898 6.72813 53.0555 6.92708C53.2211 7.12604 53.3537 7.36045 53.453 7.63045C53.5524 7.90058 53.6021 8.19661 53.6021 8.51868C53.6021 8.90715 53.5359 9.26242 53.4033 9.58449C53.2707 9.90656 53.0649 10.1861 52.7856 10.4229C52.5064 10.6597 52.1539 10.8445 51.7279 10.9771C51.302 11.1098 50.7956 11.1761 50.2088 11.1761H48.2069V1.37068H50.0952C50.6725 1.37068 51.1672 1.42991 51.5789 1.54825C51.9907 1.66671 52.329 1.83485 52.594 2.05279C52.859 2.27073 53.0507 2.53357 53.1691 2.84143C53.2873 3.14941 53.3465 3.49286 53.3465 3.87177ZM52.0971 3.9144C52.0971 3.45966 51.9361 3.0854 51.6144 2.79175C51.2926 2.4981 50.7861 2.35122 50.0952 2.35122H49.4421V5.73338H50.081C50.7435 5.73338 51.2452 5.57228 51.586 5.25021C51.9267 4.92814 52.0971 4.48283 52.0971 3.9144ZM52.2817 8.43342C52.2817 7.90285 52.1089 7.48369 51.7635 7.17571C51.418 6.86785 50.9234 6.71392 50.2798 6.71392H49.4421V10.1529H50.2088C50.9376 10.1529 51.4653 10.0084 51.7919 9.71943C52.1184 9.43056 52.2817 9.00185 52.2817 8.43342ZM59.8917 11.1761H58.8411V10.4087H58.8127C58.7843 10.4656 58.7227 10.5484 58.6281 10.6573C58.5335 10.7664 58.4128 10.8705 58.2661 10.97C58.1194 11.0695 57.9419 11.1571 57.7337 11.2329C57.5255 11.3088 57.2935 11.3466 57.038 11.3466C56.735 11.3466 56.463 11.3016 56.2216 11.2117C55.9803 11.1216 55.7743 10.9771 55.604 10.7782C55.4336 10.5792 55.3034 10.3211 55.2136 10.0037C55.1236 9.68636 55.0786 9.2955 55.0786 8.83132V4.35494H56.2287V8.74606C56.2287 9.31449 56.321 9.71943 56.5056 9.96113C56.6902 10.2026 56.9764 10.3235 57.3645 10.3235C57.6958 10.3235 57.975 10.2406 58.2022 10.0747C58.4294 9.90895 58.6092 9.74559 58.7417 9.58449V4.35494H59.8917V11.1761ZM65.3721 11.1761V6.78497C65.3721 6.20711 65.2751 5.79261 65.0811 5.54148C64.887 5.29046 64.5913 5.16495 64.1937 5.16495C63.853 5.16495 63.569 5.25021 63.3418 5.42074C63.1147 5.59127 62.9349 5.75702 62.8023 5.91812V11.1761H61.6523V4.35494H62.7029V5.12232H62.7313C62.7597 5.06548 62.8213 4.98259 62.9159 4.87357C63.0105 4.76466 63.1336 4.66041 63.285 4.56094C63.4365 4.46146 63.6164 4.37393 63.8246 4.2981C64.0328 4.22227 64.2695 4.18441 64.5345 4.18441C64.8374 4.18441 65.1118 4.22943 65.3579 4.31935C65.6041 4.40939 65.8123 4.55389 65.9826 4.75284C66.153 4.95179 66.2856 5.20997 66.3802 5.52726C66.4748 5.84468 66.5222 6.23554 66.5222 6.69971V11.1761H65.3721ZM67.9278 7.865C67.9278 7.17344 68.0177 6.59546 68.1975 6.13128C68.3773 5.6671 68.6093 5.29285 68.8932 5.00863C69.1772 4.72442 69.499 4.52307 69.8587 4.40461C70.2184 4.28627 70.578 4.22704 70.9377 4.22704C71.1555 4.22704 71.3447 4.24364 71.5056 4.27684C71.6666 4.30992 71.799 4.35016 71.9032 4.39757V1.1291L73.0532 1.0012V11.1761H72.0026V10.4513H71.9742C71.9458 10.5082 71.8938 10.5863 71.818 10.6858C71.7422 10.7852 71.6382 10.8847 71.5056 10.9842C71.3731 11.0837 71.2075 11.1689 71.0087 11.2401C70.8099 11.3112 70.578 11.3466 70.313 11.3466C69.9912 11.3466 69.6859 11.2827 69.3973 11.1547C69.1086 11.0268 68.8554 10.8232 68.6377 10.5437C68.4199 10.2642 68.2473 9.90418 68.1195 9.46364C67.9917 9.02311 67.9278 8.49027 67.9278 7.865ZM70.6254 10.3235C70.8052 10.3235 70.9661 10.2998 71.1081 10.2524C71.2501 10.205 71.3731 10.1458 71.4772 10.0747C71.5814 10.0036 71.669 9.93033 71.74 9.8545C71.811 9.77867 71.8654 9.71239 71.9032 9.65555V5.44916C71.799 5.38289 71.6784 5.32604 71.5412 5.27864C71.4039 5.23123 71.2311 5.20758 71.0229 5.20758C70.7579 5.20758 70.5094 5.2526 70.2776 5.34252C70.0456 5.43256 69.8445 5.58184 69.6741 5.79022C69.5037 5.99861 69.3689 6.26861 69.2695 6.60023C69.1701 6.93186 69.1204 7.33919 69.1204 7.82236C69.1204 8.29609 69.1606 8.69161 69.2411 9.0089C69.3215 9.32632 69.4327 9.5821 69.5747 9.77628C69.7167 9.97057 69.8777 10.1103 70.0575 10.1956C70.2373 10.2808 70.4266 10.3235 70.6254 10.3235ZM79.1867 6.65707C79.1867 6.95072 79.1773 7.20413 79.1583 7.4173C79.1393 7.63046 79.1205 7.81759 79.1015 7.97868H75.623C75.6609 8.78392 75.8336 9.37611 76.1413 9.75502C76.4489 10.1339 76.8914 10.3235 77.4688 10.3235C77.6675 10.3235 77.8473 10.2998 78.0083 10.2524C78.1692 10.205 78.3088 10.1481 78.4272 10.0819C78.5454 10.0156 78.6448 9.94919 78.7253 9.88292C78.8058 9.81664 78.8649 9.76446 78.9028 9.7266L79.3287 10.5366C79.2813 10.584 79.2103 10.6527 79.1157 10.7426C79.0211 10.8327 78.8933 10.9227 78.7324 11.0127C78.5714 11.1027 78.3727 11.1809 78.1361 11.2472C77.8995 11.3134 77.6202 11.3466 77.2984 11.3466C76.8724 11.3466 76.4867 11.2756 76.1413 11.1335C75.7958 10.9914 75.5024 10.771 75.261 10.4726C75.0197 10.1742 74.8327 9.79527 74.7002 9.33575C74.5676 8.87634 74.5014 8.32451 74.5014 7.68025C74.5014 7.07397 74.57 6.55044 74.7073 6.1099C74.8445 5.66937 75.0315 5.30705 75.2681 5.02284C75.5047 4.73862 75.7792 4.52786 76.0916 4.39041C76.4039 4.25308 76.7399 4.18441 77.0996 4.18441C77.7527 4.18441 78.2639 4.39041 78.633 4.80252C79.0021 5.21463 79.1867 5.83285 79.1867 6.65707ZM77.0286 5.12232C76.6217 5.12232 76.2951 5.29285 76.049 5.63391C75.8028 5.97496 75.6609 6.46757 75.623 7.11183H78.1077C78.1171 7.06442 78.1243 6.99575 78.129 6.90571C78.1337 6.81579 78.1361 6.7187 78.1361 6.61445C78.1361 6.14071 78.0415 5.77362 77.8521 5.51305C77.6628 5.2526 77.3883 5.12232 77.0286 5.12232ZM83.6591 5.73338C83.5833 5.64811 83.4461 5.53204 83.2473 5.38516C83.0485 5.2384 82.7882 5.16495 82.4664 5.16495C82.1635 5.16495 81.9317 5.236 81.7707 5.37811C81.6098 5.52022 81.5294 5.69074 81.5294 5.88969C81.5294 6.14549 81.6027 6.35626 81.7495 6.52202C81.8961 6.68789 82.1209 6.86547 82.4238 7.05498L82.8498 7.31077C83.3135 7.58555 83.678 7.88159 83.943 8.19888C84.208 8.51629 84.3406 8.92602 84.3406 9.42818C84.3406 9.96818 84.1536 10.4229 83.7798 10.7924C83.4059 11.1619 82.8687 11.3466 82.1683 11.3466C81.8937 11.3466 81.6524 11.3182 81.4442 11.2614C81.236 11.2045 81.0537 11.1382 80.8976 11.0624C80.7414 10.9866 80.6113 10.9037 80.5071 10.8138C80.403 10.7237 80.3178 10.6409 80.2516 10.565L80.8053 9.65555C80.8621 9.71239 80.9307 9.77867 81.0112 9.8545C81.0916 9.93033 81.1886 10.0036 81.3022 10.0747C81.4158 10.1458 81.5436 10.205 81.6855 10.2524C81.8275 10.2998 81.9931 10.3235 82.1825 10.3235C82.5232 10.3235 82.7836 10.2476 82.9634 10.0961C83.1432 9.94453 83.2331 9.7598 83.2331 9.54186C83.2331 9.38077 83.2119 9.24105 83.1693 9.12259C83.1267 9.00424 83.0627 8.8976 82.9776 8.80291C82.8924 8.70821 82.7882 8.61816 82.6652 8.5329C82.5422 8.44763 82.4002 8.35293 82.2393 8.24868L81.8133 7.97868C81.3874 7.7039 81.0537 7.41503 80.8124 7.11183C80.5711 6.80862 80.4503 6.42027 80.4503 5.94654C80.4503 5.69074 80.5001 5.45621 80.5995 5.24305C80.6988 5.03001 80.8384 4.84526 81.0182 4.68882C81.198 4.53251 81.4087 4.40939 81.6501 4.31935C81.8915 4.22943 82.1493 4.18441 82.4238 4.18441C82.6888 4.18441 82.916 4.21044 83.1053 4.26251C83.2947 4.31469 83.4579 4.38097 83.5952 4.46145C83.7324 4.54206 83.846 4.62255 83.936 4.70304C84.0258 4.78364 84.0992 4.85231 84.156 4.90915L83.6591 5.73338ZM89.2672 11.1761V6.78497C89.2672 6.22598 89.1868 5.82342 89.0259 5.57706C88.8649 5.3307 88.6047 5.20758 88.245 5.20758C88.0556 5.20758 87.8876 5.23123 87.741 5.27864C87.5943 5.32604 87.4641 5.38515 87.3505 5.45621C87.2369 5.52726 87.1375 5.60548 87.0524 5.69075C86.9672 5.77601 86.8962 5.85184 86.8394 5.91812V11.1761H85.6894V4.35494H86.74V5.12232H86.7684C86.8158 5.04649 86.8868 4.95418 86.9814 4.84527C87.076 4.73624 87.1943 4.63198 87.3363 4.53251C87.4783 4.43303 87.6439 4.35016 87.8332 4.28388C88.0226 4.21761 88.2356 4.18441 88.4721 4.18441C89.2483 4.18441 89.7973 4.48761 90.1191 5.09389C90.1853 4.9992 90.2753 4.89734 90.3889 4.78831C90.5024 4.6794 90.635 4.57992 90.7864 4.48988C90.9378 4.39996 91.1082 4.32651 91.2975 4.26967C91.4869 4.21283 91.6951 4.18441 91.9222 4.18441C93.3042 4.18441 93.9951 4.98964 93.9951 6.60023V11.1761H92.8451V6.78497C92.8451 6.22598 92.7457 5.82342 92.5469 5.57706C92.3482 5.3307 92.0548 5.20758 91.6667 5.20758C91.3449 5.20758 91.0775 5.2858 90.8646 5.442C90.6516 5.59844 90.4835 5.74759 90.3605 5.88969C90.3794 5.99395 90.3936 6.10524 90.4031 6.22371C90.4125 6.34205 90.4173 6.46756 90.4173 6.60023V11.1761H89.2672ZM96.8631 11.1761H95.7131V4.35494H96.8631V11.1761ZM96.2952 2.70649C96.0586 2.70649 95.8693 2.63066 95.7273 2.47912C95.5853 2.32758 95.5143 2.12862 95.5143 1.88226C95.5143 1.64546 95.5853 1.45117 95.7273 1.29962C95.8693 1.14808 96.0586 1.07225 96.2952 1.07225C96.5224 1.07225 96.7069 1.14808 96.8489 1.29962C96.9909 1.45117 97.0619 1.64546 97.0619 1.88226C97.0619 2.12862 96.9909 2.32758 96.8489 2.47912C96.7069 2.63066 96.5224 2.70649 96.2952 2.70649ZM102.344 11.1761V6.78497C102.344 6.20711 102.247 5.79261 102.053 5.54148C101.858 5.29046 101.563 5.16495 101.165 5.16495C100.824 5.16495 100.54 5.25021 100.313 5.42074C100.086 5.59127 99.9062 5.75702 99.7737 5.91812V11.1761H98.6237V4.35494H99.6743V5.12232H99.7027C99.7311 5.06548 99.7927 4.98259 99.8873 4.87357C99.9819 4.76466 100.105 4.66041 100.256 4.56094C100.408 4.46146 100.588 4.37393 100.796 4.2981C101.004 4.22227 101.241 4.18441 101.506 4.18441C101.809 4.18441 102.083 4.22943 102.329 4.31935C102.575 4.40939 102.784 4.55389 102.954 4.75284C103.124 4.95179 103.257 5.20997 103.352 5.52726C103.446 5.84468 103.494 6.23554 103.494 6.69971V11.1761H102.344ZM106.362 11.1761H105.211V4.35494H106.362V11.1761ZM105.794 2.70649C105.557 2.70649 105.368 2.63066 105.226 2.47912C105.084 2.32758 105.013 2.12862 105.013 1.88226C105.013 1.64546 105.084 1.45117 105.226 1.29962C105.368 1.14808 105.557 1.07225 105.794 1.07225C106.021 1.07225 106.205 1.14808 106.347 1.29962C106.489 1.45117 106.56 1.64546 106.56 1.88226C106.56 2.12862 106.489 2.32758 106.347 2.47912C106.205 2.63066 106.021 2.70649 105.794 2.70649ZM111.061 5.73338C110.985 5.64811 110.848 5.53204 110.649 5.38516C110.451 5.2384 110.19 5.16495 109.868 5.16495C109.565 5.16495 109.334 5.236 109.173 5.37811C109.012 5.52022 108.931 5.69074 108.931 5.88969C108.931 6.14549 109.005 6.35626 109.151 6.52202C109.298 6.68789 109.523 6.86547 109.826 7.05498L110.252 7.31077C110.716 7.58555 111.08 7.88159 111.345 8.19888C111.61 8.51629 111.743 8.92602 111.743 9.42818C111.743 9.96818 111.556 10.4229 111.182 10.7924C110.808 11.1619 110.271 11.3466 109.57 11.3466C109.296 11.3466 109.054 11.3182 108.846 11.2614C108.638 11.2045 108.456 11.1382 108.3 11.0624C108.143 10.9866 108.013 10.9037 107.909 10.8138C107.805 10.7237 107.72 10.6409 107.654 10.565L108.207 9.65555C108.264 9.71239 108.333 9.77867 108.413 9.8545C108.494 9.93033 108.591 10.0036 108.704 10.0747C108.818 10.1458 108.946 10.205 109.088 10.2524C109.23 10.2998 109.395 10.3235 109.584 10.3235C109.925 10.3235 110.186 10.2476 110.365 10.0961C110.545 9.94453 110.635 9.7598 110.635 9.54186C110.635 9.38077 110.614 9.24105 110.571 9.12259C110.529 9.00424 110.465 8.8976 110.38 8.80291C110.294 8.70821 110.19 8.61816 110.067 8.5329C109.944 8.44763 109.802 8.35293 109.641 8.24868L109.215 7.97868C108.789 7.7039 108.456 7.41503 108.214 7.11183C107.973 6.80862 107.852 6.42027 107.852 5.94654C107.852 5.69074 107.902 5.45621 108.001 5.24305C108.101 5.03001 108.24 4.84526 108.42 4.68882C108.6 4.53251 108.811 4.40939 109.052 4.31935C109.293 4.22943 109.551 4.18441 109.826 4.18441C110.091 4.18441 110.318 4.21044 110.507 4.26251C110.697 4.31469 110.86 4.38097 110.997 4.46145C111.134 4.54206 111.248 4.62255 111.338 4.70304C111.428 4.78364 111.501 4.85231 111.558 4.90915L111.061 5.73338ZM116.002 5.29285H114.511V9.07291C114.511 9.55607 114.573 9.88531 114.696 10.0605C114.819 10.2358 115.027 10.3235 115.32 10.3235C115.491 10.3235 115.638 10.2998 115.761 10.2524C115.884 10.205 115.974 10.1624 116.03 10.1245L116.186 11.0482C116.139 11.0861 116.026 11.1453 115.846 11.2259C115.666 11.3064 115.425 11.3466 115.122 11.3466C114.535 11.3466 114.095 11.1833 113.801 10.8563C113.508 10.5296 113.361 9.98717 113.361 9.22922V5.29285H112.538V4.52547L113.361 4.35494L113.489 2.45069H114.511V4.35494H116.144L116.002 5.29285ZM121.582 6.65707C121.582 6.95072 121.572 7.20413 121.553 7.4173C121.534 7.63046 121.515 7.81759 121.497 7.97868H118.018C118.056 8.78392 118.229 9.37611 118.536 9.75502C118.844 10.1339 119.286 10.3235 119.864 10.3235C120.063 10.3235 120.242 10.2998 120.403 10.2524C120.564 10.205 120.704 10.1481 120.822 10.0819C120.94 10.0156 121.04 9.94919 121.12 9.88292C121.201 9.81664 121.26 9.76446 121.298 9.7266L121.724 10.5366C121.676 10.584 121.605 10.6527 121.511 10.7426C121.416 10.8327 121.288 10.9227 121.127 11.0127C120.966 11.1027 120.768 11.1809 120.531 11.2472C120.294 11.3134 120.015 11.3466 119.693 11.3466C119.267 11.3466 118.882 11.2756 118.536 11.1335C118.191 10.9914 117.897 10.771 117.656 10.4726C117.415 10.1742 117.228 9.79527 117.095 9.33575C116.963 8.87634 116.896 8.32451 116.896 7.68025C116.896 7.07397 116.965 6.55044 117.102 6.1099C117.24 5.66937 117.426 5.30705 117.663 5.02284C117.9 4.73862 118.174 4.52786 118.487 4.39041C118.799 4.25308 119.135 4.18441 119.495 4.18441C120.148 4.18441 120.659 4.39041 121.028 4.80252C121.397 5.21463 121.582 5.83285 121.582 6.65707ZM119.424 5.12232C119.017 5.12232 118.69 5.29285 118.444 5.63391C118.198 5.97496 118.056 6.46757 118.018 7.11183H120.503C120.512 7.06442 120.519 6.99575 120.524 6.90571C120.529 6.81579 120.531 6.7187 120.531 6.61445C120.531 6.14071 120.436 5.77362 120.247 5.51305C120.058 5.2526 119.783 5.12232 119.424 5.12232ZM126.111 5.3639C126.082 5.34491 126.021 5.32127 125.926 5.29285C125.832 5.26443 125.704 5.25021 125.543 5.25021C125.183 5.25021 124.902 5.3473 124.698 5.54148C124.495 5.73577 124.35 5.94654 124.265 6.17392V11.1761H123.115V4.35494H124.166V5.27864H124.194C124.241 5.14596 124.303 5.01568 124.379 4.88778C124.454 4.75988 124.549 4.6462 124.663 4.54672C124.776 4.44725 124.911 4.36914 125.067 4.3123C125.224 4.25546 125.41 4.22704 125.628 4.22704C125.789 4.22704 125.919 4.24125 126.019 4.26967C126.118 4.29809 126.196 4.32174 126.253 4.34073L126.111 5.3639ZM128.397 11.1761H127.247V4.35494H128.397V11.1761ZM127.829 2.70649C127.592 2.70649 127.403 2.63066 127.261 2.47912C127.119 2.32758 127.048 2.12862 127.048 1.88226C127.048 1.64546 127.119 1.45117 127.261 1.29962C127.403 1.14808 127.592 1.07225 127.829 1.07225C128.056 1.07225 128.241 1.14808 128.382 1.29962C128.524 1.45117 128.595 1.64546 128.595 1.88226C128.595 2.12862 128.524 2.32758 128.382 2.47912C128.241 2.63066 128.056 2.70649 127.829 2.70649ZM134.928 11.1761H133.877V10.4087H133.849C133.82 10.4656 133.759 10.5484 133.664 10.6573C133.569 10.7664 133.449 10.8705 133.302 10.97C133.155 11.0695 132.978 11.1571 132.77 11.2329C132.561 11.3088 132.33 11.3466 132.074 11.3466C131.771 11.3466 131.499 11.3016 131.258 11.2117C131.016 11.1216 130.81 10.9771 130.64 10.7782C130.47 10.5792 130.339 10.3211 130.25 10.0037C130.16 9.68636 130.115 9.2955 130.115 8.83132V4.35494H131.265V8.74606C131.265 9.31449 131.357 9.71943 131.542 9.96113C131.726 10.2026 132.012 10.3235 132.4 10.3235C132.732 10.3235 133.011 10.2406 133.238 10.0747C133.465 9.90895 133.645 9.74559 133.778 9.58449V4.35494H134.928V11.1761ZM140.266 11.1761V6.78497C140.266 6.22598 140.186 5.82342 140.025 5.57706C139.864 5.3307 139.604 5.20758 139.244 5.20758C139.055 5.20758 138.887 5.23123 138.74 5.27864C138.593 5.32604 138.463 5.38515 138.349 5.45621C138.236 5.52726 138.136 5.60548 138.051 5.69075C137.966 5.77601 137.895 5.85184 137.838 5.91812V11.1761H136.688V4.35494H137.739V5.12232H137.767C137.815 5.04649 137.886 4.95418 137.98 4.84527C138.075 4.73624 138.193 4.63198 138.335 4.53251C138.477 4.43303 138.643 4.35016 138.832 4.28388C139.021 4.21761 139.234 4.18441 139.471 4.18441C140.247 4.18441 140.796 4.48761 141.118 5.09389C141.184 4.9992 141.274 4.89734 141.388 4.78831C141.501 4.6794 141.634 4.57992 141.785 4.48988C141.937 4.39996 142.107 4.32651 142.296 4.26967C142.486 4.21283 142.694 4.18441 142.921 4.18441C144.303 4.18441 144.994 4.98964 144.994 6.60023V11.1761H143.844V6.78497C143.844 6.22598 143.745 5.82342 143.546 5.57706C143.347 5.3307 143.054 5.20758 142.666 5.20758C142.344 5.20758 142.076 5.2858 141.863 5.442C141.651 5.59844 141.482 5.74759 141.359 5.88969C141.378 5.99395 141.393 6.10524 141.402 6.22371C141.411 6.34205 141.416 6.46756 141.416 6.60023V11.1761H140.266ZM50.8335 19.623H49.4421V25.5063H48.292V19.623H47.4686V18.8556L48.292 18.6993V17.3351C48.292 16.9656 48.3441 16.6482 48.4482 16.383C48.5524 16.1177 48.6896 15.8998 48.86 15.7293C49.0303 15.5587 49.2291 15.4356 49.4563 15.3598C49.6834 15.284 49.9248 15.2461 50.1804 15.2461C50.4265 15.2461 50.6347 15.2793 50.8051 15.3456C50.9754 15.4119 51.089 15.464 51.1458 15.5019L50.9045 16.454C50.8477 16.4162 50.7673 16.3758 50.6631 16.3332C50.5589 16.2905 50.4312 16.2693 50.2798 16.2693C50.0052 16.2693 49.797 16.3545 49.655 16.5251C49.5131 16.6956 49.4421 17.0082 49.4421 17.463V18.6851H50.9754L50.8335 19.623ZM56.7398 25.5063H55.6892V24.7389H55.6608C55.6324 24.7957 55.5708 24.8786 55.4762 24.9875C55.3816 25.0965 55.2608 25.2007 55.1142 25.3002C54.9675 25.3996 54.7899 25.4873 54.5817 25.5631C54.3735 25.6389 54.1416 25.6768 53.886 25.6768C53.5831 25.6768 53.3111 25.6318 53.0697 25.5419C52.8283 25.4518 52.6224 25.3073 52.452 25.1084C52.2817 24.9094 52.1515 24.6512 52.0616 24.3338C51.9717 24.0165 51.9267 23.6257 51.9267 23.1615V18.6851H53.0767V23.0762C53.0767 23.6447 53.1691 24.0496 53.3537 24.2913C53.5382 24.5328 53.8245 24.6536 54.2126 24.6536C54.5439 24.6536 54.8231 24.5707 55.0503 24.4049C55.2774 24.2391 55.4572 24.0758 55.5898 23.9147V18.6851H56.7398V25.5063ZM53.9144 16.724C53.9144 16.942 53.8482 17.1171 53.7156 17.2498C53.5831 17.3825 53.4223 17.4488 53.2329 17.4488C53.0436 17.4488 52.8827 17.3825 52.7502 17.2498C52.6176 17.1171 52.5514 16.942 52.5514 16.724C52.5514 16.5061 52.6176 16.3309 52.7502 16.1982C52.8827 16.0655 53.0436 15.9993 53.2329 15.9993C53.4223 15.9993 53.5831 16.0655 53.7156 16.1982C53.8482 16.3309 53.9144 16.5061 53.9144 16.724ZM56.1009 16.724C56.1009 16.942 56.0347 17.1171 55.9021 17.2498C55.7696 17.3825 55.6087 17.4488 55.4194 17.4488C55.2301 17.4488 55.0692 17.3825 54.9367 17.2498C54.8041 17.1171 54.7379 16.942 54.7379 16.724C54.7379 16.5061 54.8041 16.3309 54.9367 16.1982C55.0692 16.0655 55.2301 15.9993 55.4194 15.9993C55.6087 15.9993 55.7696 16.0655 55.9021 16.1982C56.0347 16.3309 56.1009 16.5061 56.1009 16.724ZM61.4961 19.6941C61.4677 19.6751 61.4061 19.6514 61.3115 19.623C61.2169 19.5946 61.0891 19.5804 60.9282 19.5804C60.5685 19.5804 60.2869 19.6775 60.0835 19.8716C59.8799 20.0659 59.7356 20.2767 59.6504 20.5041V25.5063H58.5003V18.6851H59.551V19.6088H59.5794C59.6268 19.4761 59.6882 19.3458 59.764 19.218C59.8397 19.0901 59.9343 18.9764 60.0479 18.8769C60.1615 18.7774 60.2963 18.6993 60.4525 18.6425C60.6088 18.5856 60.7956 18.5572 61.0134 18.5572C61.1743 18.5572 61.3045 18.5714 61.4039 18.5998C61.5033 18.6283 61.5813 18.6519 61.6381 18.6709L61.4961 19.6941ZM75.1261 15.7009L72.7409 25.5063H71.6334L70.1426 19.3388C70.0385 18.9125 69.9486 18.5146 69.8729 18.1451C69.7971 17.7756 69.7545 17.482 69.7451 17.264H69.7167C69.7167 17.482 69.6789 17.7708 69.6031 18.1309C69.5274 18.4909 69.4375 18.8841 69.3334 19.3104L67.8142 25.5063H66.7067L64.3783 15.7009H65.6987L66.9197 21.6694C67.0143 22.1241 67.0972 22.5528 67.1682 22.9554C67.2392 23.3581 67.2794 23.6683 67.2889 23.8862H67.3172C67.3267 23.6683 67.3764 23.351 67.4664 22.9341C67.5562 22.5172 67.6532 22.0863 67.7574 21.6409L69.2056 15.7009H70.384L71.8038 21.6694C71.908 22.1241 72.0026 22.5528 72.0878 22.9554C72.1729 23.3581 72.2203 23.6683 72.2297 23.8862H72.2581C72.2676 23.6683 72.3102 23.3486 72.3859 22.927C72.4617 22.5054 72.5469 22.0673 72.6415 21.6125L73.8767 15.7009H75.1261ZM77.341 25.5063H76.1909V18.6851H77.341V25.5063ZM76.7731 17.0367C76.5365 17.0367 76.3471 16.9608 76.2051 16.8093C76.0632 16.6577 75.9922 16.4588 75.9922 16.2124C75.9922 15.9756 76.0632 15.7813 76.2051 15.6298C76.3471 15.4783 76.5365 15.4024 76.7731 15.4024C77.0002 15.4024 77.1848 15.4783 77.3268 15.6298C77.4688 15.7813 77.5398 15.9756 77.5398 16.2124C77.5398 16.4588 77.4688 16.6577 77.3268 16.8093C77.1848 16.9608 77.0002 17.0367 76.7731 17.0367ZM82.0973 19.6941C82.0689 19.6751 82.0073 19.6514 81.9127 19.623C81.8181 19.5946 81.6903 19.5804 81.5294 19.5804C81.1696 19.5804 80.8881 19.6775 80.6847 19.8716C80.4811 20.0659 80.3367 20.2767 80.2516 20.5041V25.5063H79.1015V18.6851H80.1522V19.6088H80.1806C80.2279 19.4761 80.2894 19.3458 80.3651 19.218C80.4409 19.0901 80.5355 18.9764 80.6491 18.8769C80.7627 18.7774 80.8975 18.6993 81.0537 18.6425C81.21 18.5856 81.3968 18.5572 81.6146 18.5572C81.7755 18.5572 81.9057 18.5714 82.0051 18.5998C82.1044 18.6283 82.1825 18.6519 82.2393 18.6709L82.0973 19.6941ZM86.1437 19.623H84.6529V23.4031C84.6529 23.8862 84.7145 24.2155 84.8375 24.3907C84.9605 24.566 85.1688 24.6536 85.4622 24.6536C85.6326 24.6536 85.7793 24.63 85.9023 24.5826C86.0253 24.5352 86.1153 24.4925 86.1721 24.4547L86.3283 25.3784C86.2809 25.4162 86.1673 25.4755 85.9875 25.5561C85.8077 25.6366 85.5663 25.6768 85.2634 25.6768C84.6765 25.6768 84.2364 25.5134 83.943 25.1865C83.6496 24.8597 83.5029 24.3173 83.5029 23.5594V19.623H82.6794V18.8556L83.5029 18.6851L83.6307 16.7809H84.6529V18.6851H86.2857L86.1437 19.623ZM90.3889 20.0635C90.3131 19.9783 90.1759 19.8622 89.9771 19.7153C89.7784 19.5686 89.518 19.4951 89.1962 19.4951C88.8933 19.4951 88.6615 19.5662 88.5005 19.7083C88.3396 19.8504 88.2592 20.0209 88.2592 20.2199C88.2592 20.4757 88.3326 20.6864 88.4793 20.8522C88.6259 21.0181 88.8507 21.1956 89.1536 21.3852L89.5796 21.6409C90.0433 21.9157 90.4078 22.2118 90.6728 22.5291C90.9378 22.8465 91.0704 23.2562 91.0704 23.7583C91.0704 24.2984 90.8834 24.7531 90.5096 25.1226C90.1357 25.4921 89.5986 25.6768 88.8981 25.6768C88.6236 25.6768 88.3822 25.6484 88.174 25.5915C87.9658 25.5347 87.7835 25.4684 87.6274 25.3926C87.4713 25.3168 87.3411 25.2339 87.2369 25.144C87.1328 25.0539 87.0476 24.971 86.9814 24.8952L87.5351 23.9857C87.5919 24.0426 87.6605 24.1088 87.741 24.1847C87.8214 24.2605 87.9184 24.3338 88.032 24.4049C88.1456 24.4759 88.2734 24.5352 88.4154 24.5826C88.5573 24.63 88.7229 24.6536 88.9123 24.6536C89.253 24.6536 89.5134 24.5778 89.6932 24.4263C89.873 24.2747 89.9629 24.09 89.9629 23.872C89.9629 23.7109 89.9417 23.5712 89.8991 23.4528C89.8565 23.3344 89.7926 23.2278 89.7074 23.1331C89.6222 23.0384 89.518 22.9483 89.395 22.8631C89.272 22.7778 89.13 22.6831 88.9691 22.5789L88.5431 22.3089C88.1172 22.0341 87.7835 21.7452 87.5422 21.442C87.3009 21.1388 87.1801 20.7504 87.1801 20.2767C87.1801 20.0209 87.2299 19.7864 87.3293 19.5732C87.4287 19.3602 87.5683 19.1754 87.7481 19.019C87.9279 18.8627 88.1386 18.7396 88.3799 18.6495C88.6213 18.5596 88.8791 18.5146 89.1536 18.5146C89.4186 18.5146 89.6458 18.5406 89.8352 18.5927C90.0245 18.6449 90.1877 18.7111 90.325 18.7916C90.4622 18.8722 90.5758 18.9527 90.6658 19.0332C90.7556 19.1138 90.829 19.1825 90.8858 19.2393L90.3889 20.0635ZM96.21 20.0067C96.1816 19.9783 96.1366 19.9357 96.0752 19.8788C96.0136 19.822 95.9355 19.7651 95.8409 19.7083C95.7463 19.6514 95.6327 19.6016 95.5001 19.559C95.3676 19.5164 95.2162 19.4951 95.0458 19.4951C94.7996 19.4951 94.5702 19.5401 94.3572 19.6301C94.1443 19.7201 93.9597 19.8646 93.8035 20.0635C93.6473 20.2625 93.5242 20.5207 93.4344 20.838C93.3444 21.1554 93.2994 21.5415 93.2994 21.9962C93.2994 22.4984 93.3396 22.9199 93.4202 23.261C93.5006 23.602 93.6118 23.8744 93.7538 24.078C93.8958 24.2818 94.0685 24.4286 94.2721 24.5186C94.4755 24.6086 94.7003 24.6536 94.9464 24.6536C95.2966 24.6536 95.5641 24.592 95.7486 24.4689C95.9332 24.3458 96.0633 24.2463 96.139 24.1705L96.6076 24.9663C96.5602 25.0231 96.4916 25.0918 96.4017 25.1723C96.3118 25.2529 96.1958 25.331 96.0538 25.4068C95.9119 25.4826 95.7391 25.5465 95.5357 25.5987C95.3321 25.6508 95.0978 25.6768 94.8328 25.6768C94.4542 25.6768 94.0993 25.6152 93.768 25.4921C93.4366 25.3689 93.148 25.1652 92.9019 24.881C92.6558 24.5968 92.4618 24.2273 92.3198 23.7726C92.1778 23.3178 92.1068 22.7542 92.1068 22.0815C92.1068 21.4278 92.192 20.8736 92.3624 20.4188C92.5327 19.9641 92.7551 19.597 93.0297 19.3174C93.3042 19.038 93.6094 18.8343 93.9455 18.7064C94.2815 18.5785 94.6198 18.5146 94.9606 18.5146C95.2162 18.5146 95.4409 18.5382 95.6351 18.5856C95.8291 18.633 95.9947 18.6922 96.132 18.7632C96.2692 18.8343 96.3828 18.9101 96.4727 18.9906C96.5626 19.0712 96.6359 19.1399 96.6927 19.1967L96.21 20.0067ZM101.619 25.5063V21.1151C101.619 20.5373 101.522 20.1228 101.328 19.8716C101.134 19.6206 100.839 19.4951 100.441 19.4951C100.1 19.4951 99.8163 19.5804 99.5891 19.7509C99.362 19.9214 99.1822 20.0872 99.0496 20.2483V25.5063H97.8996V15.4593L99.0496 15.3314V19.3814H99.078C99.1158 19.3246 99.175 19.2488 99.2555 19.1541C99.3359 19.0594 99.4471 18.9645 99.5891 18.8699C99.7311 18.7752 99.9039 18.6922 100.107 18.6211C100.311 18.55 100.55 18.5146 100.824 18.5146C101.421 18.5146 101.894 18.7088 102.244 19.0972C102.594 19.4857 102.769 20.1298 102.769 21.0299V25.5063H101.619ZM104.09 23.7726C104.09 23.3747 104.166 23.043 104.317 22.7778C104.468 22.5126 104.672 22.297 104.928 22.1312C105.183 21.9654 105.484 21.8469 105.829 21.7759C106.175 21.7048 106.541 21.6694 106.929 21.6694H107.284V21.0157C107.284 20.4378 107.183 20.0399 106.979 19.822C106.776 19.604 106.489 19.4951 106.12 19.4951C105.779 19.4951 105.495 19.5686 105.268 19.7153C105.041 19.8622 104.861 19.9925 104.729 20.1062L104.246 19.3388C104.322 19.263 104.419 19.1777 104.537 19.083C104.655 18.9883 104.8 18.8983 104.97 18.813C105.14 18.7277 105.335 18.6567 105.552 18.5998C105.77 18.543 106.016 18.5146 106.291 18.5146C106.991 18.5146 107.521 18.7088 107.881 19.0972C108.24 19.4857 108.42 20.111 108.42 20.973V24.0852C108.42 24.3788 108.43 24.6654 108.449 24.9449C108.468 25.2244 108.486 25.4116 108.505 25.5063H107.412L107.37 24.7531H107.341C107.303 24.8384 107.247 24.9355 107.171 25.0444C107.095 25.1534 107 25.2529 106.887 25.3429C106.773 25.4328 106.636 25.511 106.475 25.5773C106.314 25.6436 106.125 25.6768 105.907 25.6768C105.652 25.6768 105.413 25.6294 105.19 25.5347C104.968 25.44 104.774 25.3073 104.608 25.1368C104.442 24.9663 104.315 24.7649 104.225 24.5328C104.135 24.3007 104.09 24.0473 104.09 23.7726ZM106.149 24.6963C106.31 24.6963 106.451 24.6726 106.574 24.6252C106.698 24.5778 106.804 24.521 106.894 24.4547C106.984 24.3884 107.06 24.315 107.121 24.2343C107.183 24.1539 107.237 24.0852 107.284 24.0284V22.522L106.915 22.5362C106.366 22.5552 105.95 22.6499 105.666 22.8204C105.382 22.991 105.24 23.2657 105.24 23.6447C105.24 23.9952 105.32 24.2581 105.481 24.4333C105.642 24.6086 105.865 24.6963 106.149 24.6963ZM113.02 19.623H111.629V25.5063H110.479V19.623H109.655V18.8556L110.479 18.6993V17.3351C110.479 16.9656 110.531 16.6482 110.635 16.383C110.739 16.1177 110.876 15.8998 111.047 15.7293C111.217 15.5587 111.416 15.4356 111.643 15.3598C111.87 15.284 112.112 15.2461 112.367 15.2461C112.613 15.2461 112.822 15.2793 112.992 15.3456C113.162 15.4119 113.276 15.464 113.333 15.5019L113.091 16.454C113.035 16.4162 112.954 16.3758 112.85 16.3332C112.746 16.2905 112.618 16.2693 112.467 16.2693C112.192 16.2693 111.984 16.3545 111.842 16.5251C111.7 16.6956 111.629 17.0082 111.629 17.463V18.6851H113.162L113.02 19.623ZM117.067 19.623H115.576V23.4031C115.576 23.8862 115.638 24.2155 115.761 24.3907C115.884 24.566 116.092 24.6536 116.385 24.6536C116.556 24.6536 116.702 24.63 116.825 24.5826C116.948 24.5352 117.038 24.4925 117.095 24.4547L117.251 25.3784C117.204 25.4162 117.09 25.4755 116.911 25.5561C116.731 25.6366 116.489 25.6768 116.186 25.6768C115.6 25.6768 115.159 25.5134 114.866 25.1865C114.573 24.8597 114.426 24.3173 114.426 23.5594V19.623H113.602V18.8556L114.426 18.6851L114.554 16.7809H115.576V18.6851H117.209L117.067 19.623ZM52.736 39.8364H51.6853V39.0691H51.657C51.6286 39.1259 51.567 39.2088 51.4724 39.3177C51.3778 39.4267 51.257 39.5309 51.1104 39.6303C50.9636 39.7298 50.7861 39.8175 50.5779 39.8933C50.3697 39.9691 50.1378 40.007 49.8822 40.007C49.5793 40.007 49.3073 39.9619 49.0659 39.872C48.8245 39.782 48.6186 39.6375 48.4482 39.4385C48.2778 39.2396 48.1477 38.9814 48.0578 38.664C47.9679 38.3467 47.9229 37.9558 47.9229 37.4917V33.0153H49.0729V37.4064C49.0729 37.9748 49.1653 38.3798 49.3499 38.6215C49.5344 38.8629 49.8206 38.9838 50.2088 38.9838C50.5401 38.9838 50.8193 38.9009 51.0464 38.735C51.2736 38.5693 51.4534 38.4059 51.586 38.2448V33.0153H52.736V39.8364ZM58.2164 39.8364V35.4453C58.2164 34.8675 58.1194 34.453 57.9254 34.2018C57.7313 33.9508 57.4355 33.8253 57.038 33.8253C56.6972 33.8253 56.4133 33.9106 56.1861 34.0811C55.9589 34.2516 55.7791 34.4174 55.6466 34.5785V39.8364H54.4965V33.0153H55.5472V33.7827H55.5756C55.604 33.7258 55.6655 33.6429 55.7601 33.5339C55.8548 33.425 55.9779 33.3207 56.1293 33.2213C56.2807 33.1218 56.4606 33.0343 56.6688 32.9584C56.877 32.8826 57.1137 32.8447 57.3787 32.8447C57.6816 32.8447 57.9561 32.8898 58.2022 32.9797C58.4483 33.0697 58.6565 33.2142 58.8269 33.4132C58.9973 33.6121 59.1298 33.8703 59.2244 34.1876C59.3191 34.505 59.3664 34.8959 59.3664 35.3601V39.8364H58.2164ZM60.772 36.5253C60.772 35.8338 60.862 35.2558 61.0418 34.7916C61.2216 34.3274 61.4535 33.9532 61.7375 33.669C62.0214 33.3848 62.3432 33.1834 62.7029 33.065C63.0626 32.9466 63.4223 32.8874 63.782 32.8874C63.9997 32.8874 64.1889 32.904 64.3499 32.9372C64.5108 32.9703 64.6433 33.0105 64.7474 33.0579V29.7894L65.8975 29.6615V39.8364H64.8468V39.1117H64.8184C64.79 39.1685 64.738 39.2466 64.6622 39.3461C64.5865 39.4456 64.4824 39.5451 64.3499 39.6445C64.2173 39.744 64.0517 39.8293 63.853 39.9004C63.6542 39.9715 63.4223 40.007 63.1573 40.007C62.8355 40.007 62.5302 39.9431 62.2416 39.8151C61.9528 39.6872 61.6996 39.4836 61.4819 39.204C61.2642 38.9246 61.0915 38.5645 60.9637 38.124C60.836 37.6835 60.772 37.1506 60.772 36.5253ZM63.4696 38.9838C63.6494 38.9838 63.8104 38.9602 63.9523 38.9127C64.0943 38.8653 64.2173 38.8061 64.3215 38.735C64.4257 38.664 64.5132 38.5907 64.5842 38.5148C64.6552 38.439 64.7096 38.3727 64.7474 38.3159V34.1095C64.6433 34.0432 64.5226 33.9864 64.3854 33.939C64.2481 33.8916 64.0754 33.8679 63.8672 33.8679C63.6022 33.8679 63.3537 33.9129 63.1218 34.0029C62.8899 34.0929 62.6887 34.2422 62.5184 34.4506C62.348 34.6589 62.2132 34.929 62.1138 35.2606C62.0144 35.5922 61.9646 35.9995 61.9646 36.4827C61.9646 36.9564 62.0049 37.3519 62.0854 37.6692C62.1658 37.9867 62.277 38.2424 62.419 38.4366C62.5609 38.6309 62.7219 38.7706 62.9017 38.8559C63.0815 38.9412 63.2708 38.9838 63.4696 38.9838ZM75.6372 31.0116H72.1445V34.3937H75.3533V35.3743H72.1445V38.8133H75.9922L75.9212 39.8364H70.9093V30.031H75.7224L75.6372 31.0116ZM81.1176 39.8364V35.4453C81.1176 34.8675 81.0206 34.453 80.8266 34.2018C80.6325 33.9508 80.3367 33.8253 79.9392 33.8253C79.5984 33.8253 79.3145 33.9106 79.0873 34.0811C78.8602 34.2516 78.6804 34.4174 78.5478 34.5785V39.8364H77.3978V33.0153H78.4484V33.7827H78.4768C78.5052 33.7258 78.5668 33.6429 78.6614 33.5339C78.756 33.425 78.8791 33.3207 79.0305 33.2213C79.1819 33.1218 79.3619 33.0343 79.5701 32.9584C79.7783 32.8826 80.015 32.8447 80.2799 32.8447C80.5829 32.8447 80.8573 32.8898 81.1034 32.9797C81.3496 33.0697 81.5578 33.2142 81.7281 33.4132C81.8985 33.6121 82.0311 33.8703 82.1257 34.1876C82.2203 34.505 82.2677 34.8959 82.2677 35.3601V39.8364H81.1176ZM88.3586 35.3174C88.3586 35.6111 88.3491 35.8645 88.3302 36.0776C88.3112 36.2908 88.2923 36.4779 88.2734 36.639H84.7949C84.8327 37.4443 85.0055 38.0365 85.3132 38.4154C85.6208 38.7943 86.0633 38.9838 86.6406 38.9838C86.8394 38.9838 87.0192 38.9602 87.1801 38.9127C87.3411 38.8653 87.4807 38.8085 87.599 38.7422C87.7173 38.6759 87.8167 38.6095 87.8972 38.5433C87.9776 38.477 88.0368 38.4248 88.0746 38.3869L88.5005 39.197C88.4532 39.2444 88.3822 39.313 88.2876 39.403C88.193 39.493 88.0652 39.583 87.9042 39.6731C87.7433 39.763 87.5445 39.8412 87.3079 39.9075C87.0713 39.9738 86.792 40.007 86.4702 40.007C86.0443 40.007 85.6586 39.9359 85.3132 39.7938C84.9677 39.6517 84.6743 39.4314 84.4329 39.1329C84.1915 38.8345 84.0046 38.4556 83.872 37.9961C83.7395 37.5367 83.6733 36.9849 83.6733 36.3406C83.6733 35.7343 83.7419 35.2108 83.8792 34.7702C84.0164 34.3297 84.2033 33.9674 84.4399 33.6832C84.6765 33.399 84.9511 33.1882 85.2634 33.0507C85.5758 32.9134 85.9118 32.8447 86.2715 32.8447C86.9246 32.8447 87.4357 33.0507 87.8049 33.4629C88.174 33.875 88.3586 34.4932 88.3586 35.3174ZM86.2005 33.7827C85.7935 33.7827 85.467 33.9532 85.2208 34.2942C84.9747 34.6353 84.8327 35.1279 84.7949 35.7722H87.2795C87.289 35.7248 87.2961 35.6561 87.3009 35.566C87.3055 35.4761 87.3079 35.379 87.3079 35.2748C87.3079 34.8011 87.2133 34.434 87.024 34.1734C86.8346 33.9129 86.5602 33.7827 86.2005 33.7827ZM92.8877 34.0242C92.8593 34.0053 92.7977 33.9816 92.7031 33.9532C92.6085 33.9248 92.4807 33.9106 92.3198 33.9106C91.9601 33.9106 91.6785 34.0076 91.4751 34.2018C91.2715 34.3961 91.1272 34.6069 91.042 34.8343V39.8364H89.8919V33.0153H90.9426V33.939H90.971C91.0183 33.8063 91.0798 33.676 91.1556 33.5481C91.2313 33.4202 91.3259 33.3065 91.4395 33.2071C91.5531 33.1076 91.6879 33.0295 91.8441 32.9726C92.0004 32.9158 92.1872 32.8874 92.405 32.8874C92.5659 32.8874 92.6961 32.9016 92.7955 32.93C92.8949 32.9584 92.9729 32.9821 93.0297 33.0011L92.8877 34.0242ZM98.794 33.9106H97.9422C98.1599 34.2706 98.2687 34.6779 98.2687 35.1327C98.2687 35.4927 98.2095 35.8172 98.0913 36.1061C97.9729 36.3951 97.8073 36.639 97.5944 36.838C97.3814 37.0369 97.1305 37.1885 96.8419 37.2927C96.5531 37.397 96.2432 37.449 95.9119 37.449C95.8456 37.449 95.7841 37.449 95.7273 37.449C95.6705 37.449 95.6089 37.4443 95.5427 37.4348C95.4291 37.4822 95.3108 37.5579 95.1878 37.6622C95.0648 37.7664 95.0032 37.9038 95.0032 38.0743C95.0032 38.2164 95.0576 38.3325 95.1665 38.4224C95.2753 38.5125 95.4527 38.5575 95.6989 38.5575H96.565C96.8867 38.5575 97.1849 38.5907 97.4594 38.6569C97.734 38.7232 97.9729 38.8299 98.1765 38.9766C98.3799 39.1235 98.5385 39.3106 98.6521 39.538C98.7656 39.7654 98.8224 40.0402 98.8224 40.3622C98.8224 40.7317 98.7444 41.068 98.5882 41.3712C98.432 41.6744 98.2119 41.9349 97.928 42.1528C97.644 42.3707 97.2985 42.5413 96.8915 42.6644C96.4845 42.7875 96.0302 42.8491 95.5285 42.8491C94.7996 42.8491 94.2459 42.6904 93.8674 42.3731C93.4888 42.0557 93.2994 41.5986 93.2994 41.0017C93.2994 40.7459 93.3444 40.5257 93.4344 40.341C93.5242 40.1562 93.6308 39.9951 93.7538 39.8578C93.8768 39.7204 94.0023 39.6115 94.1301 39.5308C94.2577 39.4504 94.3595 39.3865 94.4353 39.3391V39.3106C94.1419 39.0927 93.9951 38.7754 93.9951 38.3585C93.9951 38.1786 94.0307 38.0222 94.1017 37.8896C94.1727 37.7569 94.2531 37.648 94.343 37.5627C94.4329 37.4775 94.5228 37.4088 94.6128 37.3566C94.7026 37.3045 94.7712 37.2691 94.8186 37.2501V37.2217C94.4684 37.0606 94.1869 36.8072 93.9739 36.4613C93.7609 36.1156 93.6544 35.6727 93.6544 35.1327C93.6544 34.7538 93.716 34.4198 93.839 34.1309C93.962 33.8419 94.1277 33.6027 94.3359 33.4132C94.5441 33.2237 94.7878 33.0816 95.0671 32.9869C95.3463 32.8922 95.6469 32.8447 95.9687 32.8447C96.2904 32.8447 96.5934 32.9016 96.8773 33.0153H98.9502L98.794 33.9106ZM95.6279 39.6233C95.4291 39.6233 95.254 39.6091 95.1026 39.5806C95.0174 39.6281 94.9346 39.6849 94.8542 39.7512C94.7736 39.8175 94.7003 39.8981 94.634 39.9928C94.5678 40.0875 94.5134 40.1988 94.4708 40.3268C94.4282 40.4547 94.4069 40.6038 94.4069 40.7744C94.4069 41.5039 94.8092 41.8686 95.6137 41.8686C96.3046 41.8686 96.8157 41.7336 97.1471 41.4636C97.4784 41.1936 97.644 40.8833 97.644 40.5328C97.644 40.2011 97.5398 39.9667 97.3316 39.8293C97.1235 39.6919 96.8442 39.6233 96.494 39.6233H95.6279ZM97.1471 35.1327C97.1471 34.6401 97.0311 34.2895 96.7993 34.0811C96.5673 33.8727 96.2952 33.7685 95.9828 33.7685C95.6515 33.7685 95.3676 33.8727 95.131 34.0811C94.8944 34.2895 94.776 34.6401 94.776 35.1327C94.776 35.6253 94.8944 35.9759 95.131 36.1843C95.3676 36.3927 95.6421 36.4969 95.9545 36.4969C96.2858 36.4969 96.5673 36.3927 96.7993 36.1843C97.0311 35.9759 97.1471 35.6253 97.1471 35.1327ZM101.25 39.8364H100.1V33.0153H101.25V39.8364ZM100.682 31.3668C100.446 31.3668 100.256 31.291 100.114 31.1395C99.9725 30.9879 99.9015 30.789 99.9015 30.5426C99.9015 30.3058 99.9725 30.1115 100.114 29.96C100.256 29.8084 100.446 29.7326 100.682 29.7326C100.91 29.7326 101.094 29.8084 101.236 29.96C101.378 30.1115 101.449 30.3058 101.449 30.5426C101.449 30.789 101.378 30.9879 101.236 31.1395C101.094 31.291 100.91 31.3668 100.682 31.3668ZM107.384 35.3174C107.384 35.6111 107.374 35.8645 107.355 36.0776C107.336 36.2908 107.318 36.4779 107.299 36.639H103.82C103.858 37.4443 104.031 38.0365 104.338 38.4154C104.646 38.7943 105.088 38.9838 105.666 38.9838C105.865 38.9838 106.044 38.9602 106.205 38.9127C106.366 38.8653 106.506 38.8085 106.624 38.7422C106.742 38.6759 106.842 38.6095 106.922 38.5433C107.003 38.477 107.062 38.4248 107.1 38.3869L107.526 39.197C107.478 39.2444 107.407 39.313 107.313 39.403C107.218 39.493 107.09 39.583 106.929 39.6731C106.768 39.763 106.57 39.8412 106.333 39.9075C106.097 39.9738 105.817 40.007 105.495 40.007C105.07 40.007 104.684 39.9359 104.338 39.7938C103.993 39.6517 103.699 39.4314 103.458 39.1329C103.217 38.8345 103.03 38.4556 102.897 37.9961C102.765 37.5367 102.698 36.9849 102.698 36.3406C102.698 35.7343 102.767 35.2108 102.904 34.7702C103.042 34.3297 103.229 33.9674 103.465 33.6832C103.702 33.399 103.976 33.1882 104.289 33.0507C104.601 32.9134 104.937 32.8447 105.297 32.8447C105.95 32.8447 106.461 33.0507 106.83 33.4629C107.199 33.875 107.384 34.4932 107.384 35.3174ZM105.226 33.7827C104.819 33.7827 104.492 33.9532 104.246 34.2942C104 34.6353 103.858 35.1279 103.82 35.7722H106.305C106.314 35.7248 106.321 35.6561 106.326 35.566C106.331 35.4761 106.333 35.379 106.333 35.2748C106.333 34.8011 106.239 34.434 106.049 34.1734C105.86 33.9129 105.585 33.7827 105.226 33.7827Z" fill="black"/>
<path d="M16.8675 10.3867C16.8998 10.1193 16.9188 9.8434 16.9188 9.56157C16.9188 9.40752 16.92 9.22839 16.9009 9.02538C19.2788 8.99194 21.3643 7.2771 21.3643 5.30551C21.3643 4.3024 20.7105 3.54529 20.3419 3.09269C20.4242 3.07478 20.5077 3.05567 20.5924 3.03537C20.9408 3.33869 21.9287 4.41584 21.9287 5.77602C21.9287 8.14169 19.5663 10.3378 16.8675 10.3867ZM14.4718 2.14809C14.4276 1.88418 14.3274 1.64534 14.1747 1.43994C14.1831 1.19872 14.2821 0.968243 14.6698 1.15812C14.4599 1.37307 14.6221 1.75401 14.6221 1.75401C14.6221 1.75401 15.0516 1.55459 14.9622 1.27037C15.5993 1.42323 15.1411 2.27945 14.4718 2.14809ZM13.9194 3.36258C13.8347 3.0091 13.6533 2.64607 13.4231 2.3726C13.2131 2.12421 12.8659 1.82925 12.3982 1.82925C12.1846 1.82925 11.8267 1.92956 11.5988 2.02629C11.5141 1.87104 11.3483 1.49726 11.3483 1.32889C11.3483 1.15573 11.6406 0.980185 12.2001 0.980185C13.4314 0.980185 14.1664 1.53667 14.1664 2.47052C14.1664 2.79892 14.0363 3.09747 13.9194 3.36258ZM17.0811 19.2452C17.2243 19.2452 17.2935 19.2679 17.377 19.2989C17.7313 20.2638 19.0974 22.0849 19.1547 22.1626L19.1666 22.1793L19.1869 22.1745C19.5222 22.1208 20.3776 21.9918 21.0935 21.9918H21.1102C21.1878 21.9918 21.2761 21.9918 21.3321 22.0467C21.3787 22.0933 21.4013 22.1745 21.4013 22.2903C21.4013 22.4683 21.3262 22.7728 21.2355 22.903C20.9849 22.6295 20.5781 22.5065 19.9267 22.5065C19.731 22.5065 19.4995 22.565 19.3742 22.5984L19.3229 22.6092L19.2645 22.6247L19.6403 23.0009C20.2202 23.5812 20.7213 24.0816 20.7213 24.4148C20.7213 24.6154 20.5256 24.8769 20.3466 24.9928C20.3073 24.3825 19.6916 23.5657 19.0915 23.1084L19.0402 23.0701L19.0306 23.2851C19.0223 23.4308 19.0092 23.6493 19.0092 23.8834C19.0092 25.0453 18.891 25.2221 18.489 25.2221C18.4269 25.2221 18.3327 25.2041 18.2742 25.1826C18.5009 24.902 18.5904 24.5318 18.5904 23.8822L18.5868 23.5824L18.5832 23.3412C18.5832 23.0749 18.6107 22.8779 18.6321 22.7191L18.6441 22.6295L18.5808 22.6211C18.3923 22.5949 18.0427 22.5471 17.7755 22.5471C17.2016 22.5471 16.8127 22.5996 16.5311 22.8647C16.345 22.7143 16.1541 22.4551 16.1541 22.2915C16.1541 22.0491 16.3044 22.03 16.5025 22.03C16.6027 22.03 16.6957 22.0443 16.8246 22.0599C17.0716 22.0969 17.4426 22.1518 18.2074 22.1518H18.2551L18.2396 22.1052C18.0463 21.5499 17.5142 20.7427 16.6611 19.7049C16.7375 19.4267 16.8127 19.2452 17.0811 19.2452ZM9.71489 22.1052L9.69938 22.1518H9.74711C10.5107 22.1518 10.8829 22.0969 11.1299 22.0599C11.2588 22.0443 11.3518 22.03 11.452 22.03C11.6489 22.03 11.8004 22.0491 11.8004 22.2915C11.8004 22.4551 11.6095 22.7143 11.4246 22.8647C11.1418 22.5996 10.7529 22.5471 10.1802 22.5471C9.91176 22.5471 9.56098 22.5949 9.37367 22.6211L9.34384 22.6247L9.31043 22.6295L9.32117 22.7191C9.34384 22.8779 9.37128 23.0749 9.37128 23.3412L9.3677 23.5824L9.36412 23.8822C9.36412 24.5318 9.4536 24.902 9.68149 25.1826C9.62183 25.2041 9.52758 25.2221 9.46553 25.2221C9.06227 25.2221 8.94534 25.0453 8.94534 23.8834C8.94534 23.6493 8.93341 23.4308 8.92506 23.2851L8.91313 23.0689L8.86302 23.1084C8.26408 23.5657 7.64605 24.3825 7.60907 24.9928C7.42891 24.8769 7.23324 24.6154 7.23324 24.4148C7.23324 24.0816 7.73434 23.5812 8.31419 23.0009L8.64707 22.6677L8.69002 22.6247L8.58025 22.5984C8.45498 22.565 8.22352 22.5065 8.02665 22.5065C7.37641 22.5065 6.97076 22.6295 6.71901 22.903C6.62834 22.7728 6.55317 22.4683 6.55317 22.2903C6.55317 22.1745 6.57584 22.0933 6.62237 22.0467C6.67845 21.9918 6.76674 21.9918 6.84429 21.9918H6.86099C7.57685 21.9918 8.4335 22.1208 8.76757 22.1745L8.78785 22.1793L8.79978 22.1626C8.85825 22.0849 10.2232 20.2638 10.5787 19.2989C10.6598 19.2679 10.7302 19.2452 10.8734 19.2452C11.1418 19.2452 11.217 19.4267 11.2946 19.7049C10.4403 20.7427 9.90818 21.5499 9.71489 22.1052ZM6.02582 5.77602C6.02582 4.41584 7.0149 3.33869 7.36329 3.03537C7.44681 3.05567 7.53032 3.07478 7.61384 3.09269C7.24398 3.54529 6.59016 4.3024 6.59016 5.30551C6.59016 7.2974 8.71627 9.02658 11.1239 9.02658C11.1084 9.19734 11.1001 9.37647 11.1001 9.56157C11.1001 9.85534 11.1168 10.1288 11.1454 10.3867C8.42276 10.37 6.02582 8.15841 6.02582 5.77602ZM24.2874 9.97117C25.5092 11.9045 26.4649 11.8723 27.9085 11.8723C26.7142 10.9564 25.9244 9.78249 25.5474 9.18301L23.3163 5.61002C23.0991 4.5066 22.5288 3.47483 21.6745 2.70697C21.9621 2.5983 22.2007 2.48366 22.3439 2.37499C20.8871 2.37499 19.4434 1.6346 18.6488 1.6346C18.1382 1.6346 17.8101 1.94031 17.8101 2.34394C17.8423 2.79415 18.3052 3.25152 19.1607 3.25152C19.354 3.25152 19.6021 3.22644 19.8742 3.18106C20.3371 3.82711 20.7105 4.41107 20.7105 5.24461C20.7105 6.80898 18.8421 8.02824 16.9558 8.02824C16.8485 8.02824 16.747 8.02346 16.6409 8.0163C16.4702 7.62819 15.9011 6.97736 15.9011 6.23697C15.9011 4.99383 16.7112 3.97877 16.7112 2.74757C16.7112 1.9821 16.339 1.50801 16.1958 1.31097C16.4273 1.09602 16.6802 0.832107 16.7399 0.650592C16.6051 0.709107 16.4452 0.71627 16.2125 0.71627C15.3082 0.71627 14.5708 0.481018 13.8526 0.481018C13.4421 0.481018 13.3324 0.6076 13.3324 0.728212C13.3324 0.772397 13.3383 0.817776 13.3503 0.839271C13.1976 0.779562 13.0544 0.740155 12.8838 0.709107C12.6714 0.668504 12.4435 0.648203 12.2001 0.648203C11.3268 0.648203 11.0166 1.01482 11.0166 1.32889C11.0166 1.59399 11.2254 2.07883 11.4628 2.44903C11.8028 2.27706 12.2121 2.16123 12.3982 2.16123C12.8623 2.16123 13.2739 2.60308 13.4923 3.12613C13.1809 3.16434 13.1212 3.17748 12.8062 3.17748C11.9555 3.17748 11.3769 2.87296 11.2576 2.87296C11.2468 2.87296 11.2242 2.87893 11.2242 2.89804C11.2242 3.01746 11.4652 3.33272 11.94 3.50588C12.5664 3.73516 13.5042 3.83069 13.6605 3.85697C13.6605 3.88443 13.5018 4.18059 13.324 4.23791C13.287 4.24985 13.2572 4.25105 13.2131 4.24149C12.5593 4.11252 12.3767 4.05759 11.5475 3.74232C11.5224 3.73277 11.5069 3.7483 11.5069 3.77457C11.5069 4.10297 12.3564 4.82783 13.1176 5.10608C12.4817 5.91812 11.6883 6.74927 11.3137 8.0163C11.2075 8.02346 11.1049 8.02824 10.9987 8.02824C9.11238 8.02824 7.24398 6.80898 7.24398 5.24461C7.24398 4.41107 7.61742 3.82711 8.08034 3.18106C8.35237 3.22644 8.59934 3.25152 8.79382 3.25152C9.64927 3.25152 10.1122 2.79415 10.1456 2.34394C10.1456 1.94031 9.8175 1.6346 9.30566 1.6346C8.51105 1.6346 7.06859 2.37499 5.60943 2.37499C5.75379 2.48366 5.99241 2.5983 6.27876 2.70697C5.42569 3.47483 4.85539 4.5066 4.63824 5.61002L2.40714 9.18301C2.03131 9.78249 1.2391 10.9564 0.0447998 11.8723C1.48845 11.8723 2.44532 11.9045 3.66706 9.97117L4.81124 8.1393C4.89595 8.37694 4.99975 8.60861 5.12264 8.83551L2.8474 12.479C2.46918 13.0832 1.68412 14.2463 0.485054 15.1682C1.92871 15.1682 2.88558 15.2017 4.10731 13.2695L6.06519 10.1312C6.21194 10.2876 6.36586 10.4405 6.52812 10.5862L3.76489 15.0142C3.38549 15.6196 2.6052 16.7804 1.40374 17.7011C2.8474 17.7011 3.80426 17.7357 5.02481 15.8024L7.71883 11.4854C7.8966 11.5976 8.07796 11.7063 8.26647 11.809L4.97709 17.0765C4.59768 17.682 3.81739 18.8392 2.61594 19.7635C4.05959 19.7635 5.01646 19.7969 6.23819 17.8647L9.62422 12.4395C9.82466 12.516 10.0275 12.59 10.2339 12.6557L6.40761 18.7854C6.03417 19.3825 5.23599 20.5612 4.04766 21.4723C5.49012 21.4723 6.44818 21.5058 7.66872 19.5736L11.7467 13.0414C11.7885 13.0486 11.8291 13.0545 11.8696 13.0629C11.9806 13.4164 12.0581 13.746 12.0581 14.0744C12.0581 16.1272 10.7123 17.9399 9.09687 19.3395C9.20067 19.3849 9.38083 19.4004 9.54667 19.4004C9.88074 19.4004 10.0955 19.3825 10.247 19.3562C9.87238 20.2077 9.06823 21.3075 8.66258 21.876C8.13403 21.7804 7.36448 21.7064 6.86099 21.7064C6.33364 21.7064 6.27399 22.0145 6.27399 22.2903C6.27399 22.7692 6.49829 23.1502 6.75839 23.3627C6.85622 23.1179 7.05308 22.7907 8.02665 22.7907C8.04574 22.7907 8.07915 22.7931 8.12449 22.7967C7.84053 23.1131 6.94928 23.8344 6.94928 24.4148C6.94928 24.7993 7.37045 25.3761 7.92524 25.3761C7.89303 25.2519 7.8966 25.1385 7.8966 25.0525C7.8966 24.582 8.313 24.0315 8.66496 23.6469C8.65423 23.7616 8.66019 23.7496 8.66019 23.8834C8.66019 24.9952 8.76041 25.5063 9.46553 25.5063C9.81153 25.5063 10.0502 25.3164 10.1325 25.2591C9.67433 24.8375 9.65047 24.5055 9.65047 23.8822C9.65166 23.7198 9.65285 23.5609 9.65524 23.3424C9.65643 23.1991 9.65405 23.0104 9.63138 22.8743C9.88312 22.8397 9.98573 22.8397 10.1802 22.8397C10.1802 22.8397 11.1812 22.7597 11.4234 23.2815C11.6954 23.0319 12.0904 22.6796 12.0904 22.2915C12.0904 22.0348 11.9687 21.7446 11.452 21.7446C11.2564 21.7446 10.6419 21.864 10.1277 21.864C10.2661 21.5571 10.8806 20.6567 11.4139 20.0035C11.495 20.2566 11.6203 20.5301 11.8995 20.7546C11.9388 20.3343 12.1846 19.0051 12.8408 18.2277C12.9172 18.7532 13.0198 19.2918 13.0198 20.4274C13.0198 23.1908 12.3564 25.2316 10.9474 25.6209C11.1311 25.9398 11.5189 26.2276 11.9209 26.2276C12.4364 26.2276 12.7167 25.6436 13.0031 25.0931C13.1522 25.4991 13.5638 26.495 13.9767 26.495C14.3895 26.495 14.8023 25.4991 14.9514 25.0931C15.2366 25.6436 15.5181 26.2276 16.0336 26.2276C16.4356 26.2276 16.8234 25.9398 17.0071 25.6209C15.5981 25.2316 14.9335 23.1908 14.9335 20.4274C14.9335 19.2918 15.0361 18.7532 15.1125 18.2277C15.7699 19.0051 16.0169 20.3343 16.0538 20.7546C16.3342 20.5301 16.4607 20.2566 16.5406 20.0035C17.0728 20.6567 17.6884 21.5571 17.8268 21.864C17.3126 21.864 16.6969 21.7446 16.5025 21.7446C15.987 21.7446 15.8653 22.0348 15.8653 22.2915C15.8653 22.6796 16.2603 23.0319 16.5323 23.2815C16.7721 22.7597 17.7755 22.8397 17.7755 22.8397C17.9688 22.8397 18.0714 22.8397 18.3243 22.8743C18.3005 23.0104 18.2993 23.1991 18.3005 23.3424C18.3028 23.5609 18.3028 23.7198 18.304 23.8822C18.304 24.5055 18.2802 24.8375 17.822 25.2591C17.9043 25.3164 18.143 25.5063 18.489 25.5063C19.1941 25.5063 19.2955 24.9952 19.2955 23.8834C19.2955 23.7496 19.2991 23.7616 19.2895 23.6469C19.6415 24.0315 20.0579 24.582 20.0579 25.0525C20.0579 25.1385 20.0627 25.2519 20.0281 25.3761C20.5841 25.3761 21.0064 24.7993 21.0064 24.4148C21.0064 23.8344 20.1152 23.1131 19.8288 22.7967C19.8754 22.7931 19.9088 22.7907 19.9267 22.7907C20.9014 22.7907 21.0983 23.1179 21.1961 23.3627C21.4562 23.1502 21.6805 22.7692 21.6805 22.2903C21.6805 22.0145 21.6209 21.7064 21.0935 21.7064C20.59 21.7064 19.8217 21.7804 19.2919 21.876C18.8851 21.3075 18.0833 20.2077 17.7075 19.3562C17.859 19.3825 18.075 19.4004 18.4078 19.4004C18.5749 19.4004 18.7538 19.3849 18.8576 19.3395C17.2422 17.9399 15.8964 16.1272 15.8964 14.0744C15.8964 13.746 15.9739 13.4164 16.0849 13.0629C16.1242 13.0545 16.1672 13.0486 16.2078 13.0414L20.2858 19.5736C21.5063 21.5058 22.4644 21.4723 23.9068 21.4723C22.7185 20.5612 21.9203 19.3825 21.5469 18.7854L17.7194 12.6557C17.927 12.59 18.131 12.516 18.3315 12.4395L21.7163 17.8647C22.938 19.7969 23.8949 19.7635 25.3386 19.7635C24.1371 18.8392 23.3568 17.682 22.9774 17.0765L19.6892 11.809C19.8754 11.7063 20.0579 11.5976 20.2345 11.4854L22.9297 15.8024C24.1514 17.7357 25.1071 17.7011 26.5508 17.7011C25.3493 16.7804 24.5702 15.6196 24.1896 15.0142L21.4264 10.5862C21.5886 10.4405 21.7438 10.2876 21.8881 10.1312L23.8484 13.2695C25.0689 15.2017 26.0258 15.1682 27.4694 15.1682C26.2692 14.2463 25.4865 13.0832 25.1071 12.479L22.8331 8.83551C22.9547 8.60861 23.0585 8.37694 23.1445 8.1393L24.2874 9.97117Z" fill="black"/>
<path d="M39.3301 25.5063H35.1542V1.62268H39.3301V25.5063Z" fill="black"/>
<path d="M39.3301 49.3899H35.1542V25.5063H39.3301V49.3899Z" fill="#FF0000"/>
<path d="M39.3301 73.2735H35.1542V49.3899H39.3301V73.2735Z" fill="#FFCC00"/>
</g>
<defs>
<clipPath id="clip0_17_22">
<rect width="145" height="73" fill="white"/>
</clipPath>
</defs>
</svg>
