<svg id="Ebene_1" data-name="Ebene 1" xmlns="http://www.w3.org/2000/svg" viewBox="0 0 260.73 63.03"><defs><style>.cls-1{fill:#1d1d1b;}.cls-2{fill:#cd0a1e;}</style></defs><path class="cls-1" d="M117.27,41.12c0-1.37,0-6.59.07-7.95h-.07c-.27.65-1.91,3.83-2.24,4.46l-3,5.89h-1.17l-3-5.89c-.33-.63-2-3.81-2.27-4.46h0c0,1.36.07,6.58.07,7.95V47h-1.44V31.34H106l5.34,10.35h0l5.33-10.35h2V47h-1.44Z" transform="translate(-31.01 -31.34)"/><path class="cls-1" d="M124.34,33.26h-1.5V31.34h1.5ZM124.25,47h-1.32V35.23h1.32Z" transform="translate(-31.01 -31.34)"/><path class="cls-1" d="M134.83,46.68a7.17,7.17,0,0,1-2.63.49c-2.36,0-3-.9-3-3.72V36.31h-2.13v-.9l2.24-.21.33-2.61h.92l0,2.64h4.06v1.08h-4.09V43.5c0,1.89.21,2.54,2,2.54a5.88,5.88,0,0,0,2.29-.51Z" transform="translate(-31.01 -31.34)"/><path class="cls-1" d="M143.84,46.68a7.17,7.17,0,0,1-2.63.49c-2.36,0-3-.9-3-3.72V36.31H136.1v-.9l2.24-.21.32-2.61h.93l0,2.64h4.07v1.08h-4.09V43.5c0,1.89.21,2.54,2,2.54a5.88,5.88,0,0,0,2.29-.51Z" transform="translate(-31.01 -31.34)"/><path class="cls-1" d="M147.14,41.25c0,1.85.35,3.12,1.13,3.91a4.07,4.07,0,0,0,3,.92,9.52,9.52,0,0,0,3.42-.55v1.15a11.07,11.07,0,0,1-3.6.53c-3.65,0-5.32-1.82-5.32-6.09,0-4.49,2-6.1,5-6.1,3.17,0,4.42,1.71,4.42,4.87a13.33,13.33,0,0,1-.1,1.36ZM148.27,37a5,5,0,0,0-1.11,3.19h6.66c0-.3,0-.42,0-.53a3.79,3.79,0,0,0-.81-2.75,3.17,3.17,0,0,0-2.33-.76A3.32,3.32,0,0,0,148.27,37Z" transform="translate(-31.01 -31.34)"/><path class="cls-1" d="M159.8,47h-1.32V31.34h1.32Z" transform="translate(-31.01 -31.34)"/><path class="cls-1" d="M170.52,43.73c0-1.94-1.34-2.06-3-2.11-1.85-.07-4.14-.23-4.14-3.39,0-2.57,2.22-3.24,4.51-3.24a11.84,11.84,0,0,1,3.05.4v1.13a11.1,11.1,0,0,0-3.1-.39c-1.78,0-3.12.53-3.12,2.1,0,1.94,1.39,2,3,2.08,2,.09,4.11.32,4.11,3.37,0,2.66-2.47,3.53-4.85,3.53a12.63,12.63,0,0,1-3.58-.53v-1.2A12.74,12.74,0,0,0,167,46C169.13,46,170.52,45.39,170.52,43.73Z" transform="translate(-31.01 -31.34)"/><path class="cls-1" d="M181.33,46.68a7.23,7.23,0,0,1-2.64.49c-2.35,0-3-.9-3-3.72V36.31h-2.12v-.9l2.24-.21.32-2.61h.93l0,2.64h4.07v1.08H177V43.5c0,1.89.21,2.54,2,2.54a5.88,5.88,0,0,0,2.29-.51Z" transform="translate(-31.01 -31.34)"/><path class="cls-1" d="M190.5,40.26V38.51c0-2.15-.86-2.38-3.05-2.38a17.13,17.13,0,0,0-3.54.39V35.39a17.07,17.07,0,0,1,3.72-.37c2.85,0,4.19.57,4.19,3.39V47h-1l-.17-1.25h0a5.58,5.58,0,0,1-3.74,1.43,4.3,4.3,0,0,1-3-1,3.44,3.44,0,0,1-.9-2.45,3.21,3.21,0,0,1,.86-2.45c.92-.9,2.52-1.11,4.39-1.11C188.72,40.17,189.69,40.21,190.5,40.26Zm0,1.09a19,19,0,0,0-2.15-.12c-1.87,0-2.79.16-3.42.79a2.28,2.28,0,0,0-.53,1.73c0,1.71,1.2,2.29,2.73,2.29a4.24,4.24,0,0,0,3.37-1.48Z" transform="translate(-31.01 -31.34)"/><path class="cls-1" d="M196.9,36.93A6,6,0,0,1,201.42,35c2.87,0,3.61,1.27,3.61,3.67V47h-1.32V39c0-2-.58-2.77-2.56-2.77a5.14,5.14,0,0,0-4.11,2V47h-1.32V35.23h1l.16,1.7Z" transform="translate(-31.01 -31.34)"/><path class="cls-1" d="M213,47.19c-3.19,0-4.76-1.87-4.76-6.07S210.13,35,213.53,35a5.4,5.4,0,0,1,3.12.79V31.34H218V47h-1l-.14-1.46h0A5,5,0,0,1,213,47.19Zm3.65-10.07a4.2,4.2,0,0,0-3-.95c-2.52,0-4.07,1.27-4.07,4.95s1.2,4.94,3.63,4.94a4.21,4.21,0,0,0,3.42-1.85Z" transform="translate(-31.01 -31.34)"/><path class="cls-1" d="M227.78,41.3h-6.93V40.15h6.93Z" transform="translate(-31.01 -31.34)"/><path class="cls-1" d="M240.39,45.48A5.61,5.61,0,0,1,236,47h-5.22V31.34H236a5.56,5.56,0,0,1,4.39,1.51c1.25,1.24,1.9,3.3,1.9,6.33S241.64,44.23,240.39,45.48Zm-1.13-11.87A4.22,4.22,0,0,0,236,32.5h-3.72V45.85H236a4.26,4.26,0,0,0,3.3-1.13c1-1,1.53-2.82,1.53-5.54S240.23,34.6,239.26,33.61Z" transform="translate(-31.01 -31.34)"/><path class="cls-1" d="M247.14,33.26h-1.5V31.34h1.5ZM247.05,47h-1.32V35.23h1.32Z" transform="translate(-31.01 -31.34)"/><path class="cls-1" d="M260,46.61c0,4-2.87,4.51-5.08,4.51a13.13,13.13,0,0,1-3.7-.53v-1.2a11.38,11.38,0,0,0,3.56.55c2.08,0,3.9-.55,3.9-3.19V44.67h0a4.65,4.65,0,0,1-3.51,1.6c-3.08,0-4.67-1.71-4.67-5.62s1.9-5.61,5.2-5.61a5.18,5.18,0,0,1,3.21,1h0l.16-.78H260Zm-1.32-9.47a4,4,0,0,0-2.86-1c-2.43,0-4,1.16-4,4.48s1.18,4.49,3.49,4.49a4.14,4.14,0,0,0,3.35-1.92Z" transform="translate(-31.01 -31.34)"/><path class="cls-1" d="M265.55,33.26h-1.5V31.34h1.5ZM265.46,47h-1.32V35.23h1.32Z" transform="translate(-31.01 -31.34)"/><path class="cls-1" d="M276,46.68a7.23,7.23,0,0,1-2.64.49c-2.35,0-3-.9-3-3.72V36.31H268.3v-.9l2.24-.21.32-2.61h.93l0,2.64h4.07v1.08h-4.09V43.5c0,1.89.21,2.54,2,2.54a5.88,5.88,0,0,0,2.29-.51Z" transform="translate(-31.01 -31.34)"/><path class="cls-1" d="M285.21,40.26V38.51c0-2.15-.86-2.38-3-2.38a17.06,17.06,0,0,0-3.54.39V35.39a17.07,17.07,0,0,1,3.72-.37c2.84,0,4.18.57,4.18,3.39V47h-1l-.16-1.25h0a5.58,5.58,0,0,1-3.74,1.43,4.3,4.3,0,0,1-3-1,3.44,3.44,0,0,1-.9-2.45,3.21,3.21,0,0,1,.86-2.45c.92-.9,2.52-1.11,4.39-1.11C283.43,40.17,284.4,40.21,285.21,40.26Zm0,1.09a19,19,0,0,0-2.15-.12c-1.87,0-2.8.16-3.42.79a2.28,2.28,0,0,0-.53,1.73c0,1.71,1.2,2.29,2.72,2.29a4.24,4.24,0,0,0,3.38-1.48Z" transform="translate(-31.01 -31.34)"/><path class="cls-1" d="M291.74,47h-1.31V31.34h1.31Z" transform="translate(-31.01 -31.34)"/><path class="cls-1" d="M103.69,70.51V68.29l7.56-10.93v0h-6.94V54.84h10.84v2.24L107.6,68v0h7.62v2.48Z" transform="translate(-31.01 -31.34)"/><path class="cls-1" d="M120.28,65.31a3.32,3.32,0,0,0,.74,2.47,3.58,3.58,0,0,0,2.72.76,17.57,17.57,0,0,0,3.68-.46v2.2a17.54,17.54,0,0,1-4.28.6c-4.39,0-6.1-2.06-6.1-6.26,0-4.79,2.68-6.26,5.76-6.26,3.53,0,5.12,1.68,5.12,5,0,.42,0,1.34-.11,1.9Zm.78-4.14a3.1,3.1,0,0,0-.71,2H125c0-.3,0-.47,0-.49a1.86,1.86,0,0,0-2.15-2.12A2.6,2.6,0,0,0,121.06,61.17Z" transform="translate(-31.01 -31.34)"/><path class="cls-1" d="M137.81,58.45c2.93,0,4,1.08,4,3.67v8.39h-3V62.68c0-1.37-.46-1.81-1.82-1.81a4.32,4.32,0,0,0-3.1,1.53v8.11h-3V58.73H133l.41,1.54h0A6,6,0,0,1,137.81,58.45Z" transform="translate(-31.01 -31.34)"/><path class="cls-1" d="M152.55,70.28a9.58,9.58,0,0,1-3.07.46c-2.73,0-3.68-.9-3.68-4.18V60.94h-1.91V59l2.19-.28.76-2.61h2v2.64h3.62v2.21h-3.65v5.55c0,1.64.49,1.85,1.73,1.85a9.89,9.89,0,0,0,2-.26Z" transform="translate(-31.01 -31.34)"/><path class="cls-1" d="M160.56,58.47a3.3,3.3,0,0,1,1.67.35v2.31a4.72,4.72,0,0,0-1.41-.21,3.09,3.09,0,0,0-2.91,1.85v7.74h-3V58.73H157l.44,1.66h0A3.52,3.52,0,0,1,160.56,58.47Z" transform="translate(-31.01 -31.34)"/><path class="cls-1" d="M167.91,70.78c-2.93,0-4-1.2-4-3.79V58.73h3v7.83c0,1.36.46,1.8,1.82,1.8a4.32,4.32,0,0,0,3.1-1.53v-8.1h3V70.51h-2.13L172.35,69h0A6,6,0,0,1,167.91,70.78Z" transform="translate(-31.01 -31.34)"/><path class="cls-1" d="M188.52,60.13a5.24,5.24,0,0,1,3.9-1.68c2.77,0,3.81,1.08,3.81,3.67v8.39h-3V62.68c0-1.37-.39-1.81-1.59-1.81a3.67,3.67,0,0,0-2.75,1.53v8.11h-3.05V62.68c0-1.37-.39-1.81-1.59-1.81a3.67,3.67,0,0,0-2.75,1.53v8.11h-3V58.73h2.12l.42,1.54h0A5.27,5.27,0,0,1,185,58.45c1.89,0,2.95.53,3.44,1.68Z" transform="translate(-31.01 -31.34)"/><path class="cls-1" d="M104,94V78.34h3.18v6.45h6.52V78.34h3.19V94h-3.19V87.26H107.2V94Z" transform="translate(-31.01 -31.34)"/><path class="cls-1" d="M127.21,85.67c0-1.07,0-1.57-2.84-1.57a19.06,19.06,0,0,0-3.72.43V82.32a20.5,20.5,0,0,1,4.34-.47c3.83,0,5.22.88,5.22,4V94h-2.1l-.39-1.2h0a4.7,4.7,0,0,1-3.55,1.45,4.92,4.92,0,0,1-3.47-1.08,3.71,3.71,0,0,1-1-2.64,3.63,3.63,0,0,1,.9-2.63c1-1,3-1.23,4.69-1.23.67,0,1.25,0,1.92.07Zm-4,3.55a1.58,1.58,0,0,0-.37,1.18c0,1.3.85,1.5,2,1.5a2.71,2.71,0,0,0,2.45-1.15v-2c-.69,0-1.36-.07-1.76-.07A3.28,3.28,0,0,0,123.17,89.22Z" transform="translate(-31.01 -31.34)"/><path class="cls-1" d="M140.49,82c2.93,0,4,1.08,4,3.67V94h-3.05V86.18c0-1.37-.46-1.81-1.82-1.81a4.32,4.32,0,0,0-3.1,1.53V94h-3.05V82.23h2.13l.42,1.54h0A6,6,0,0,1,140.49,82Z" transform="translate(-31.01 -31.34)"/><path class="cls-1" d="M154.81,82c2.94,0,4.05,1.08,4.05,3.67V94h-3.05V86.18c0-1.37-.47-1.81-1.83-1.81a4.28,4.28,0,0,0-3.09,1.53V94h-3V82.23H150l.42,1.54h0A6,6,0,0,1,154.81,82Z" transform="translate(-31.01 -31.34)"/><path class="cls-1" d="M167.47,94.38c-3.39,0-6-1.37-6-6.26s2.61-6.27,6-6.27,6,1.37,6,6.27S170.87,94.38,167.47,94.38Zm-1.87-2.85a3.09,3.09,0,0,0,3.74,0c.6-.6.88-1.66.88-3.41s-.28-2.82-.88-3.42a3.09,3.09,0,0,0-3.74,0c-.6.6-.88,1.66-.88,3.42S165,90.93,165.6,91.53Z" transform="translate(-31.01 -31.34)"/><path class="cls-1" d="M182.42,87.1l1.71-4.87h3.09L182.81,94H179l-4.39-11.78h3.29l1.7,4.87c.67,1.92,1,2.84,1.37,4.23h0C181.47,89.94,181.75,89,182.42,87.1Z" transform="translate(-31.01 -31.34)"/><path class="cls-1" d="M191.63,88.81a3.32,3.32,0,0,0,.74,2.47,3.61,3.61,0,0,0,2.73.76,17.48,17.48,0,0,0,3.67-.46v2.2a17.53,17.53,0,0,1-4.27.6c-4.39,0-6.1-2.06-6.1-6.26,0-4.79,2.68-6.27,5.75-6.27,3.54,0,5.13,1.69,5.13,5.06,0,.42-.05,1.34-.12,1.9Zm.79-4.14a3.1,3.1,0,0,0-.72,2h4.67c0-.3,0-.47,0-.49a2.17,2.17,0,0,0-.51-1.59,2.2,2.2,0,0,0-1.64-.53A2.57,2.57,0,0,0,192.42,84.67Z" transform="translate(-31.01 -31.34)"/><path class="cls-1" d="M207.9,82a3.29,3.29,0,0,1,1.66.35v2.31a4.72,4.72,0,0,0-1.41-.21,3.11,3.11,0,0,0-2.91,1.85V94h-3.05V82.23h2.12l.44,1.66h0A3.5,3.5,0,0,1,207.9,82Z" transform="translate(-31.01 -31.34)"/><path class="cls-2" d="M70,82.86a1.91,1.91,0,1,0-1.91,1.91A1.91,1.91,0,0,0,70,82.86Z" transform="translate(-31.01 -31.34)"/><path class="cls-2" d="M81.75,67.88,72.82,76h-12a4.42,4.42,0,1,1,0-2.5h11l8.93-8.16H93.7V59.91H60.83a4.42,4.42,0,1,1,0-2.5H93.7V51.92H80.78l-8.93-8.15h-11a4.41,4.41,0,1,1,0-2.5h12l8.93,8.15h12V31.34H50.85A19.85,19.85,0,0,0,31,51.19V57.5H43l8.93-8.16h12a4.42,4.42,0,1,1,0,2.5h-11L43.93,60H31v5.48H63.89a4.41,4.41,0,1,1,0,2.5H31v5.47H43.93l8.93,8.16h11a4.41,4.41,0,1,1,0,2.5h-12L43,76H31.1A19.83,19.83,0,0,0,50.85,94h23A19.84,19.84,0,0,0,93.7,74.19V67.88Z" transform="translate(-31.01 -31.34)"/><path class="cls-2" d="M70,66.73a1.91,1.91,0,1,0-1.91,1.91A1.92,1.92,0,0,0,70,66.73Z" transform="translate(-31.01 -31.34)"/><path class="cls-2" d="M54.7,58.66a1.92,1.92,0,1,0,1.91-1.92A1.92,1.92,0,0,0,54.7,58.66Z" transform="translate(-31.01 -31.34)"/><path class="cls-2" d="M54.69,74.79a1.92,1.92,0,1,0,1.91-1.92A1.92,1.92,0,0,0,54.69,74.79Z" transform="translate(-31.01 -31.34)"/><path class="cls-2" d="M54.69,42.52a1.92,1.92,0,1,0,1.91-1.91A1.92,1.92,0,0,0,54.69,42.52Z" transform="translate(-31.01 -31.34)"/><path class="cls-2" d="M70,50.59a1.91,1.91,0,1,0-1.91,1.92A1.91,1.91,0,0,0,70,50.59Z" transform="translate(-31.01 -31.34)"/></svg>